# xmcd
#
# Track frame offsets: 
#        150
#        26487
#        48314
#        67635
#        88724
#
# Disc length: 1380 seconds
#
# Revision: 2
# Processed by: cddbd v1.5.2PL0 Copyright (c) Steve Scherf et al.
# Submitted via: ExactAudioCopy v0.99pb1
#
DISCID=31056205
DTITLE=Ryszard Rynkowski - Zlote przeboje
DYEAR=2003
DGENRE=Blues
TTITLE0=Szczesliwej drogi juz czas
TTITLE1=Wypijmy za bledy
TTITLE2=Inny nie bede
TTITLE3=Nie budzcie marzen ze snu
TTITLE4=Swobodny Blues
EXTD=
EXTT0=
EXTT1=
EXTT2=
EXTT3=
EXTT4=
PLAYORDER=
